<svg xmlns="http://www.w3.org/2000/svg" viewBox="0 0 512 512">
  <defs>
    <linearGradient id="bg" x1="80" y1="40" x2="430" y2="470" gradientUnits="userSpaceOnUse">
      <stop stop-color="#161b2c"/>
      <stop offset="1" stop-color="#080a11"/>
    </linearGradient>
    <linearGradient id="accent" x1="128" y1="100" x2="390" y2="410" gradientUnits="userSpaceOnUse">
      <stop stop-color="#c4b5fd"/>
      <stop offset=".55" stop-color="#8b5cf6"/>
      <stop offset="1" stop-color="#38bdf8"/>
    </linearGradient>
    <filter id="glow" x="-40%" y="-40%" width="180%" height="180%">
      <feGaussianBlur stdDeviation="12" result="blur"/>
      <feMerge><feMergeNode in="blur"/><feMergeNode in="SourceGraphic"/></feMerge>
    </filter>
  </defs>
  <rect width="512" height="512" rx="116" fill="url(#bg)"/>
  <rect x="18" y="18" width="476" height="476" rx="100" fill="none" stroke="#A78BFA" stroke-opacity=".2" stroke-width="4"/>
  <g fill="none" stroke="url(#accent)" stroke-linecap="round" stroke-linejoin="round" filter="url(#glow)">
    <path d="M136 158h118c20 0 36 16 36 36v24c0 20 16 36 36 36h48" stroke-width="18"/>
    <path d="M136 354h118c20 0 36-16 36-36v-24c0-20 16-36 36-36h48" stroke-width="18"/>
  </g>
  <rect x="80" y="112" width="126" height="92" rx="24" fill="#20283A" stroke="#A78BFA" stroke-width="10"/>
  <rect x="80" y="308" width="126" height="92" rx="24" fill="#20283A" stroke="#38BDF8" stroke-width="10"/>
  <rect x="324" y="210" width="108" height="96" rx="24" fill="#20283A" stroke="#F7F8FF" stroke-width="10"/>
  <circle cx="143" cy="158" r="14" fill="#C4B5FD"/>
  <circle cx="143" cy="354" r="14" fill="#67D5FA"/>
  <path d="m374 236 30 22-30 22v-44Z" fill="#F7F8FF"/>
</svg>

